<svg width="148" height="130" xmlns="http://www.w3.org/2000/svg" xmlns:xlink="http://www.w3.org/1999/xlink" xml:space="preserve" overflow="hidden"><defs><clipPath id="clip0"><rect x="-254" y="223" width="148" height="130"/></clipPath></defs><g clip-path="url(#clip0)" transform="translate(254 -223)"><path d="M-192 224-157 234-157 338.333-192 349-192 224Z" fill="#FFFFFF" fill-rule="evenodd"/><path d="M0 0 61.6715 8.15725" stroke="#FFFFFF" stroke-width="2.29167" stroke-miterlimit="8" fill="#4472C4" fill-rule="evenodd" transform="matrix(-1 0 0 1 -191.329 224)"/><path d="M-253 232-253 338.568" stroke="#FFFFFF" stroke-width="2.29167" stroke-miterlimit="8" fill="#4472C4" fill-rule="evenodd"/><path d="M-191.329 349.051-253 339" stroke="#FFFFFF" stroke-width="2.29167" stroke-miterlimit="8" fill="#4472C4" fill-rule="evenodd"/><path d="M-192 262-156.781 266.658" stroke="#4472C4" stroke-width="2.29167" stroke-miterlimit="8" fill="#4472C4" fill-rule="evenodd"/><path d="M0 0 35.2177 6.48848" stroke="#4472C4" stroke-width="2.29167" stroke-miterlimit="8" fill="#4472C4" fill-rule="evenodd" transform="matrix(1 0 0 -1 -192 310.488)"/><path d="M-214 229-214 345.791" stroke="#FFFFFF" stroke-width="2.29167" stroke-miterlimit="8" fill="#4472C4" fill-rule="evenodd"/><path d="M-129.1 353C-129.362 353-129.625 353-129.887 352.712-129.887 352.712-129.887 352.712-129.887 352.712-130.675 352.425-132.775 350.986-135.662 348.973-139.337 346.384-142.75 343.219-145.112 340.63-145.375 339.767-145.637 339.479-145.637 338.904-145.637 338.329-145.375 337.466-145.112 337.178-144.587 336.89-144.062 336.603-143.537 336.603-143.012 336.603-142.225 336.89-141.962 337.178-139.337 340.63-135.662 343.507-133.3 345.233-131.462 346.671-129.887 347.534-129.1 348.11-129.1 348.397-129.1 348.397-129.1 348.397-128.837 348.11-128.837 348.11-128.837 348.11-127.787 347.534-126.212 346.384-124.112 344.945-121.75 342.932-118.075 339.767-114.925 336.315-113.087 333.726-111.512 331.425-110.987 329.123-110.2 327.685-110.2 326.534-110.2 325.096-110.2 322.219-111.25 319.918-112.825 318.192-114.4 316.178-116.762 315.315-118.862 315.315-120.7 315.315-122.537 315.891-123.85 317.041-125.425 317.904-126.212 319.63-127.262 321.356-127.525 321.932-128.05 322.795-129.1 322.795-129.887 322.795-130.675 321.932-130.937 321.356-131.462 319.63-132.775 317.904-134.087 317.041-135.662 315.891-137.5 315.315-138.812 315.315-141.437 315.315-143.537 316.178-145.375 318.192-146.95 319.918-147.737 322.219-147.737 325.096-147.737 326.822-147.475 328.548-146.687 330.562-146.425 331.425-146.425 332.575-147.212 333.151-147.212 333.151-147.212 333.151-147.212 333.151-147.212 333.151-147.212 333.151-147.212 333.151-147.475 333.438-148.262 333.726-148.525 333.726-159.813 333.726-159.813 333.726-159.813 333.726-159.813 333.726-159.813 333.726-159.813 333.726-160.075 334.014-160.075 334.014-160.075 334.014-163.75 349.26-163.75 349.26-163.75 349.26-164.275 350.411-164.8 350.986-165.588 350.986-166.113 350.986-166.113 350.986-166.113 350.986-166.9 350.986-167.425 350.123-167.95 348.973-171.1 327.11-171.1 327.11-171.1 327.11-171.625 325.671-171.625 325.671-171.625 325.671-171.888 327.11-171.888 327.11-171.888 327.11-173.988 332.575-173.988 332.575-173.988 332.575-174.25 333.151-175.038 333.726-175.825 333.726-187.9 333.726-187.9 333.726-187.9 333.726-188.95 333.726-190 332.863-190 331.425-190 329.986-188.95 329.123-187.9 329.123-177.4 329.123-177.4 329.123-177.4 329.123-177.138 329.123-177.138 329.123-177.138 329.123-177.138 329.123-177.138 329.123-177.138 329.123-172.675 316.466-172.675 316.466-172.675 316.466-172.413 315.603-171.625 315.315-170.838 315.315-170.575 315.315-170.575 315.315-170.575 315.315-169.788 315.315-168.738 315.891-168.738 317.041-165.325 338.329-165.325 338.329-165.325 338.329-163.488 330.849-163.488 330.849-163.488 330.849-163.225 329.699-162.7 329.123-161.388 329.123-151.937 329.123-151.937 329.123-151.937 329.123-151.412 329.123-151.412 329.123-151.412 329.123-151.412 328.836-151.412 328.836-151.412 328.836-151.937 327.397-151.937 325.959-151.937 325.096-151.937 317.329-146.425 311-138.812 311-136.45 311-134.087 311.575-131.725 313.301-130.937 313.877-129.887 315.027-129.362 315.603-129.1 315.891-129.1 315.891-129.1 315.891-128.837 315.603-128.837 315.603-128.837 315.603-128.05 315.027-127.262 313.877-126.212 313.301-124.112 311.575-121.75 311-118.862 311-111.775 311-106 317.329-106 325.096-106 326.822-106.262 328.836-107.05 330.849-107.575 332.575-108.362 334.014-109.412 335.74-111.25 338.616-113.612 341.206-116.762 344.37-121.75 348.973-126.737 352.137-127.787 352.712-128.05 352.712-128.05 352.712-128.05 352.712-128.05 352.712-128.05 352.712-128.05 352.712-128.575 353-128.837 353-129.1 353Z" fill="#FFE699" fill-rule="evenodd"/></g></svg>