<svg width="84" height="100" xmlns="http://www.w3.org/2000/svg" xmlns:xlink="http://www.w3.org/1999/xlink" xml:space="preserve" overflow="hidden"><defs><clipPath id="clip0"><rect x="1247" y="686" width="84" height="100"/></clipPath></defs><g clip-path="url(#clip0)" transform="translate(-1247 -686)"><path d="M1315.58 728C1283.94 728 1283.94 728 1283.94 728 1283.47 728 1283 727.4 1283 726.2 1283 725.6 1283.47 725 1283.94 725 1315.58 725 1315.58 725 1315.58 725 1316.53 725 1317 725.6 1317 726.2 1317 727.4 1316.53 728 1315.58 728ZM1315.58 728C1315.58 728 1315.58 728 1315.58 728" fill="#FFFFFF" fill-rule="evenodd"/><path d="M1315.58 755C1283.94 755 1283.94 755 1283.94 755 1283.47 755 1283 754 1283 753.5 1283 753 1283.47 752 1283.94 752 1315.58 752 1315.58 752 1315.58 752 1316.53 752 1317 753 1317 753.5 1317 754 1316.53 755 1315.58 755ZM1315.58 755C1315.58 755 1315.58 755 1315.58 755" fill="#FFFFFF" fill-rule="evenodd"/><path d="M1317.08 693.212C1315.64 693.212 1315.64 693.212 1315.64 693.212 1315.64 687.923 1315.64 687.923 1315.64 687.923 1315.64 686.962 1315.16 686 1314.2 686 1313.24 686 1312.76 686.962 1312.76 687.923 1312.76 693.212 1312.76 693.212 1312.76 693.212 1307.48 693.212 1307.48 693.212 1307.48 693.212 1307.48 687.923 1307.48 687.923 1307.48 687.923 1307.48 686.962 1306.52 686 1306.04 686 1305.08 686 1304.12 686.962 1304.12 687.923 1304.12 693.212 1304.12 693.212 1304.12 693.212 1298.84 693.212 1298.84 693.212 1298.84 693.212 1298.84 687.923 1298.84 687.923 1298.84 687.923 1298.84 686.962 1298.36 686 1297.4 686 1296.44 686 1295.96 686.962 1295.96 687.923 1295.96 693.212 1295.96 693.212 1295.96 693.212 1290.68 693.212 1290.68 693.212 1290.68 693.212 1290.68 687.923 1290.68 687.923 1290.68 687.923 1290.68 686.962 1289.72 686 1288.76 686 1288.28 686 1287.32 686.962 1287.32 687.923 1287.32 693.212 1287.32 693.212 1287.32 693.212 1282.04 693.212 1282.04 693.212 1282.04 693.212 1282.04 687.923 1282.04 687.923 1282.04 687.923 1282.04 686.962 1281.56 686 1280.6 686 1279.64 686 1279.16 686.962 1279.16 687.923 1279.16 693.212 1279.16 693.212 1279.16 693.212 1273.4 693.212 1273.4 693.212 1273.4 693.212 1273.4 687.923 1273.4 687.923 1273.4 687.923 1273.4 686.962 1272.92 686 1271.96 686 1271 686 1270.52 686.962 1270.52 687.923 1270.52 693.212 1270.52 693.212 1270.52 693.212 1265.24 693.212 1265.24 693.212 1265.24 693.212 1265.24 687.923 1265.24 687.923 1265.24 687.923 1265.24 686.962 1264.28 686 1263.8 686 1262.84 686 1261.88 686.962 1261.88 687.923 1261.88 693.212 1261.88 693.212 1261.88 693.212 1260.92 693.212 1260.92 693.212 1260.92 693.212 1253.24 693.212 1247 699.462 1247 707.154 1247 772.539 1247 772.539 1247 772.539 1247 779.75 1253.24 786 1260.92 786 1317.08 786 1317.08 786 1317.08 786 1324.76 786 1331 779.75 1331 772.539 1331 707.154 1331 707.154 1331 707.154 1331 699.462 1324.76 693.212 1317.08 693.212ZM1327.64 772.539C1327.64 778.308 1322.84 783.116 1317.08 783.116 1260.92 783.116 1260.92 783.116 1260.92 783.116 1254.68 783.116 1249.88 778.308 1249.88 772.539 1249.88 707.154 1249.88 707.154 1249.88 707.154 1249.88 701.385 1254.68 696.577 1260.92 696.577 1261.88 696.577 1261.88 696.577 1261.88 696.577 1261.88 700.904 1261.88 700.904 1261.88 700.904 1261.88 701.866 1262.84 702.346 1263.8 702.346 1264.28 702.346 1265.24 701.866 1265.24 700.904 1265.24 696.577 1265.24 696.577 1265.24 696.577 1270.52 696.577 1270.52 696.577 1270.52 696.577 1270.52 700.904 1270.52 700.904 1270.52 700.904 1270.52 701.866 1271 702.346 1271.96 702.346 1272.92 702.346 1273.4 701.866 1273.4 700.904 1273.4 696.577 1273.4 696.577 1273.4 696.577 1279.16 696.577 1279.16 696.577 1279.16 696.577 1279.16 700.904 1279.16 700.904 1279.16 700.904 1279.16 701.866 1279.64 702.346 1280.6 702.346 1281.56 702.346 1282.04 701.866 1282.04 700.904 1282.04 696.577 1282.04 696.577 1282.04 696.577 1287.32 696.577 1287.32 696.577 1287.32 696.577 1287.32 700.904 1287.32 700.904 1287.32 700.904 1287.32 701.866 1288.28 702.346 1288.76 702.346 1289.72 702.346 1290.68 701.866 1290.68 700.904 1290.68 696.577 1290.68 696.577 1290.68 696.577 1295.96 696.577 1295.96 696.577 1295.96 696.577 1295.96 700.904 1295.96 700.904 1295.96 700.904 1295.96 701.866 1296.44 702.346 1297.4 702.346 1298.36 702.346 1298.84 701.866 1298.84 700.904 1298.84 696.577 1298.84 696.577 1298.84 696.577 1304.12 696.577 1304.12 696.577 1304.12 696.577 1304.12 700.904 1304.12 700.904 1304.12 700.904 1304.12 701.866 1305.08 702.346 1306.04 702.346 1306.52 702.346 1307.48 701.866 1307.48 700.904 1307.48 696.577 1307.48 696.577 1307.48 696.577 1312.76 696.577 1312.76 696.577 1312.76 696.577 1312.76 700.904 1312.76 700.904 1312.76 700.904 1312.76 701.866 1313.24 702.346 1314.2 702.346 1315.16 702.346 1315.64 701.866 1315.64 700.904 1315.64 696.577 1315.64 696.577 1315.64 696.577 1317.08 696.577 1317.08 696.577 1317.08 696.577 1322.84 696.577 1327.64 701.385 1327.64 707.154L1327.64 772.539ZM1275.8 720.616C1268.12 732.635 1268.12 732.635 1268.12 732.635 1267.64 733.116 1267.64 733.116 1267.16 733.596 1266.68 733.596 1266.68 733.596 1266.68 733.596 1266.2 733.596 1266.2 733.596 1265.72 733.116 1259.48 728.789 1259.48 728.789 1259.48 728.789 1259 728.308 1258.52 727.346 1259 726.385 1259.48 725.904 1260.44 725.904 1261.4 726.385 1266.2 729.75 1266.2 729.75 1266.2 729.75 1272.92 719.173 1272.92 719.173 1272.92 719.173 1273.4 718.212 1274.36 718.212 1275.32 718.692 1275.8 719.173 1275.8 720.135 1275.8 720.616ZM1275.8 748.019C1268.12 760.039 1268.12 760.039 1268.12 760.039 1267.64 760.519 1267.64 760.519 1267.16 760.519 1266.68 760.519 1266.68 761 1266.68 761 1266.2 761 1266.2 760.519 1265.72 760.519 1259.48 756.192 1259.48 756.192 1259.48 756.192 1259 755.712 1258.52 754.75 1259 753.789 1259.48 753.308 1260.44 752.827 1261.4 753.308 1266.2 757.154 1266.2 757.154 1266.2 757.154 1272.92 746.096 1272.92 746.096 1272.92 746.096 1273.4 745.616 1274.36 745.135 1275.32 745.616 1275.8 746.096 1275.8 747.058 1275.8 748.019ZM1275.8 748.019C1275.8 748.019 1275.8 748.019 1275.8 748.019" fill="#FFFFFF" fill-rule="evenodd"/></g></svg>