<svg width="110" height="95" xmlns="http://www.w3.org/2000/svg" xmlns:xlink="http://www.w3.org/1999/xlink" xml:space="preserve" overflow="hidden"><g transform="translate(264 -289)"><path d="M-195.076 371.585C-195.345 370.506-195.345 369.426-195.613 368.616-221.655 368.616-221.655 368.616-221.655 368.616-221.924 370.506-222.192 372.665-222.998 374.554-223.534 376.443-224.608 378.332-226.219 379.412-227.562 380.761-229.172 381.571-231.589 381.571-231.589 384-231.589 384-231.589 384-185.411 384-185.411 384-185.411 384-185.411 381.571-185.411 381.571-185.411 381.571-187.828 381.571-189.438 380.761-191.049 379.412-193.197 377.523-194.271 374.554-195.076 371.585M-157.222 289C-259.778 289-259.778 289-259.778 289-261.658 289-263 290.35-263 292.239-263 359.98-263 359.98-263 359.98-263 361.599-261.658 362.949-259.778 362.949-157.222 362.949-157.222 362.949-157.222 362.949-155.611 362.949-154 361.599-154 359.98-154 292.239-154 292.239-154 292.239-154 290.35-155.611 289-157.222 289M-161.517 355.392C-255.483 355.392-255.483 355.392-255.483 355.392-255.483 296.557-255.483 296.557-255.483 296.557-161.517 296.557-161.517 296.557-161.517 296.557L-161.517 355.392Z" fill="#fefffe" fill-rule="evenodd"/><rect x="-245" y="303" width="12" height="12" fill="#fefffe"/><rect x="-229" y="308" width="57.0001" height="2.00006" fill="#fefffe"/><rect x="-245" y="321" width="12" height="11" fill="#fefffe"/><rect x="-229" y="325" width="57.0001" height="3.00009" fill="#fefffe"/><rect x="-245" y="339" width="12" height="9.99997" fill="#fefffe"/><rect x="-229" y="343" width="57.0001" height="2.00006" fill="#fefffe"/></g></svg>