<svg width="97" height="85" xmlns="http://www.w3.org/2000/svg" xmlns:xlink="http://www.w3.org/1999/xlink" xml:space="preserve" overflow="hidden"><g transform="translate(285 -176)"><path d="M-224.554 249.892C-224.554 248.926-224.793 247.96-224.793 247.236-247.968 247.236-247.968 247.236-247.968 247.236-248.207 248.926-248.685 250.858-249.401 252.548-249.879 254.239-250.835 255.929-252.03 256.895-253.463 258.102-254.897 258.827-257.047 258.827-257.047 261-257.047 261-257.047 261-215.953 261-215.953 261-215.953 261-215.953 258.827-215.953 258.827-215.953 258.827-218.103 258.827-219.537 258.102-220.97 256.895-222.643 255.204-223.837 252.548-224.554 249.892M-190.867 176C-282.133 176-282.133 176-282.133 176-283.566 176-285 177.207-285 178.898-285 239.508-285 239.508-285 239.508-285 240.957-283.566 242.165-282.133 242.165-190.867 242.165-190.867 242.165-190.867 242.165-189.195 242.165-188 240.957-188 239.508-188 178.898-188 178.898-188 178.898-188 177.207-189.195 176-190.867 176M-194.69 235.403C-278.31 235.403-278.31 235.403-278.31 235.403-278.31 182.761-278.31 182.761-278.31 182.761-194.69 182.761-194.69 182.761-194.69 182.761L-194.69 235.403Z" fill="#e2b23a" fill-rule="evenodd"/><path d="M-218.348 212.912C-219.543 212.912-220.739 213.644-221.217 214.862-227.435 214.862-227.435 214.862-227.435 214.862-232.456 204.625-232.456 204.625-232.456 204.625-236.043 218.762-236.043 218.762-236.043 218.762-238.674 190.244-238.674 190.244-238.674 190.244-242.022 190-242.022 190-242.022 190-248.478 214.862-248.478 214.862-248.478 214.862-259 214.862-259 214.862-259 214.862-259 218.275-259 218.275-259 218.275-245.848 218.275-245.848 218.275-245.848 218.275-241.304 200.481-241.304 200.481-241.304 200.481-238.674 228.756-238.674 228.756-238.674 228.756-235.326 229-235.326 229-235.326 229-231.5 214.375-231.5 214.375-231.5 214.375-229.587 218.275-229.587 218.275-229.587 218.275-221.217 218.275-221.217 218.275-221.217 218.275-220.739 219.25-219.543 219.981-218.348 219.981-216.435 219.981-215 218.275-215 216.569-215 214.619-216.435 212.912-218.348 212.912" fill="#e2b23a" fill-rule="evenodd"/></g></svg>