<svg width="87" height="96" xmlns="http://www.w3.org/2000/svg" xmlns:xlink="http://www.w3.org/1999/xlink" xml:space="preserve" overflow="hidden"><defs><clipPath id="clip0"><rect x="-298" y="240" width="87" height="96"/></clipPath></defs><g clip-path="url(#clip0)" transform="translate(298 -240)"><path d="M-223.592 293.053C-223.363 256.076-223.363 256.076-223.363 256.076-223.363 255.847-223.363 255.847-223.363 255.617-223.592 254.009-224.966 252.861-226.568 252.861-263.658 252.861-263.658 252.861-263.658 252.861-276.479 240-276.479 240-276.479 240-294.566 258.143-294.566 287.541-276.479 305.684-258.392 323.828-229.087 323.828-211 305.684L-223.592 293.053ZM-280.371 294.89C-296.397 266.182-276.708 246.201-276.708 246.201-273.045 250.335-273.045 250.335-273.045 250.335-273.045 250.335-288.842 265.493-280.371 294.89M-230.003 286.622C-257.247 259.062-257.247 259.062-257.247 259.062-230.003 259.062-230.003 259.062-230.003 259.062L-230.003 286.622ZM-269.382 324.976C-269.611 319.464-269.153 312.574-276.937 312.574-284.95 312.574-284.263 319.464-284.492 324.976-289.3 335.311-297.542 325.435-298 336-256.103 336-256.103 336-256.103 336-256.332 325.435-264.803 335.311-269.382 324.976M-282.889 324.517C-284.263 312.804-276.021 313.493-276.021 313.493-276.021 313.493-279.913 316.249-282.889 324.517" fill="#fefffe" fill-rule="evenodd"/></g></svg>