<svg width="121" height="97" xmlns="http://www.w3.org/2000/svg" xmlns:xlink="http://www.w3.org/1999/xlink" xml:space="preserve" overflow="hidden"><g transform="translate(280 -221)"><path d="M-248.714 277.734-248.714 318-231 318-231 277.734-240.143 270.257-248.714 277.734ZM-279 318-261.286 318-261.286 287.513-279 302.469-279 318ZM-188.714 268.531-188.714 318-171 318-171 253-188.714 268.531ZM-219 288.088-219 318-201.286 318-201.286 278.885-215 290.965-219 288.088Z" fill="#fefffe" fill-rule="evenodd"/><path d="M-159 221-193.857 221-179 235.228-215 266.529-240.143 245.472-279 277.911-279 291-240.143 259.699-215 280.187-171.572 242.626-159 254.577-159 221Z" fill="#fefffe" fill-rule="evenodd"/></g></svg>