<svg width="148" height="102" xmlns="http://www.w3.org/2000/svg" xmlns:xlink="http://www.w3.org/1999/xlink" xml:space="preserve" overflow="hidden"><defs><clipPath id="clip0"><rect x="-276" y="214" width="148" height="102"/></clipPath></defs><g clip-path="url(#clip0)" transform="translate(276 -214)"><path d="M-176 295.199-223.391 315-223.391 255.882-176 235.938-176 295.199ZM-228.75 255.882-276 235.938-276 295.199-228.75 315-228.75 255.882ZM-226.071 214-276 231.949-226.071 252.178-176 231.949-226.071 214Z" fill="#FFFFFF" fill-rule="evenodd"/><path d="M-151.65 316C-151.919 316-152.187 316-152.456 315.692-152.456 315.692-152.456 315.692-152.456 315.692-153.262 315.383-155.412 313.842-158.369 311.685-162.131 308.911-165.625 305.52-168.044 302.746-168.313 301.822-168.581 301.514-168.581 300.897-168.581 300.281-168.313 299.356-168.044 299.048-167.506 298.74-166.969 298.431-166.431 298.431-165.894 298.431-165.087 298.74-164.819 299.048-162.131 302.746-158.369 305.829-155.95 307.678-154.069 309.219-152.456 310.144-151.65 310.76-151.65 311.068-151.65 311.068-151.65 311.068-151.381 310.76-151.381 310.76-151.381 310.76-150.306 310.144-148.694 308.911-146.544 307.37-144.125 305.212-140.362 301.822-137.137 298.123-135.256 295.349-133.644 292.883-133.106 290.418-132.3 288.877-132.3 287.644-132.3 286.103-132.3 283.02-133.375 280.555-134.987 278.705-136.6 276.548-139.019 275.623-141.169 275.623-143.05 275.623-144.931 276.24-146.275 277.472-147.887 278.397-148.694 280.246-149.769 282.096-150.037 282.712-150.575 283.637-151.65 283.637-152.456 283.637-153.262 282.712-153.531 282.096-154.069 280.246-155.412 278.397-156.756 277.472-158.369 276.24-160.25 275.623-161.594 275.623-164.281 275.623-166.431 276.548-168.313 278.705-169.925 280.555-170.731 283.02-170.731 286.103-170.731 287.952-170.463 289.801-169.656 291.959-169.388 292.883-169.388 294.116-170.194 294.733-170.194 294.733-170.194 294.733-170.194 294.733-170.194 294.733-170.194 294.733-170.194 294.733-170.463 295.041-171.269 295.349-171.538 295.349-183.094 295.349-183.094 295.349-183.094 295.349-183.094 295.349-183.094 295.349-183.094 295.349-183.363 295.657-183.363 295.657-183.363 295.657-187.125 311.993-187.125 311.993-187.125 311.993-187.663 313.226-188.2 313.842-189.006 313.842-189.544 313.842-189.544 313.842-189.544 313.842-190.35 313.842-190.888 312.918-191.425 311.685-194.65 288.26-194.65 288.26-194.65 288.26-195.188 286.719-195.188 286.719-195.188 286.719-195.456 288.26-195.456 288.26-195.456 288.26-197.606 294.116-197.606 294.116-197.606 294.116-197.875 294.733-198.681 295.349-199.488 295.349-211.85 295.349-211.85 295.349-211.85 295.349-212.925 295.349-214 294.425-214 292.883-214 291.342-212.925 290.418-211.85 290.418-201.1 290.418-201.1 290.418-201.1 290.418-200.831 290.418-200.831 290.418-200.831 290.418-200.831 290.418-200.831 290.418-200.831 290.418-196.263 276.856-196.263 276.856-196.263 276.856-195.994 275.931-195.188 275.623-194.381 275.623-194.113 275.623-194.113 275.623-194.113 275.623-193.306 275.623-192.231 276.24-192.231 277.472-188.738 300.281-188.738 300.281-188.738 300.281-186.856 292.267-186.856 292.267-186.856 292.267-186.588 291.034-186.05 290.418-184.706 290.418-175.031 290.418-175.031 290.418-175.031 290.418-174.494 290.418-174.494 290.418-174.494 290.418-174.494 290.109-174.494 290.109-174.494 290.109-175.031 288.568-175.031 287.027-175.031 286.103-175.031 277.781-169.388 271-161.594 271-159.175 271-156.756 271.616-154.337 273.466-153.531 274.082-152.456 275.315-151.919 275.931-151.65 276.24-151.65 276.24-151.65 276.24-151.381 275.931-151.381 275.931-151.381 275.931-150.575 275.315-149.769 274.082-148.694 273.466-146.544 271.616-144.125 271-141.169 271-133.912 271-128 277.781-128 286.103-128 287.952-128.269 290.109-129.075 292.267-129.612 294.116-130.419 295.657-131.494 297.507-133.375 300.589-135.794 303.363-139.019 306.753-144.125 311.685-149.231 315.075-150.306 315.692-150.575 315.692-150.575 315.692-150.575 315.692-150.575 315.692-150.575 315.692-150.575 315.692-151.112 316-151.381 316-151.65 316Z" fill="#FFE699" fill-rule="evenodd"/></g></svg>