<svg width="106" height="103" xmlns="http://www.w3.org/2000/svg"
    xmlns:xlink="http://www.w3.org/1999/xlink" xml:space="preserve" overflow="hidden"><g transform="translate(296 -169)"><path d="M-191 170C-205.932 182.286-205.932 182.286-205.932 182.286-200.502 182.968-200.502 182.968-200.502 182.968-235.116 248.833-235.116 248.833-235.116 248.833-262.942 224.945-262.942 224.945-262.942 224.945-263.282 224.603-264.3 224.262-264.978 224.603-265.657 224.603-266.336 224.945-266.675 225.627-283.982 251.905-283.982 251.905-283.982 251.905-285 252.929-284.661 254.635-283.303 255.318-282.964 255.659-282.625 256-281.946 256-281.267 256-280.249 255.659-279.91 254.635-263.96 230.746-263.96 230.746-263.96 230.746-236.134 254.635-236.134 254.635-236.134 254.635-235.455 255.318-234.776 255.318-234.098 255.318-233.079 255.318-232.401 254.635-232.061 253.952-196.09 185.357-196.09 185.357-196.09 185.357-192.697 189.453-192.697 189.453-192.697 189.453L-191 170Z" fill="#fefffe" fill-rule="evenodd"/><path d="M-196.04 266.543C-289.596 266.543-289.596 266.543-289.596 266.543-289.596 172.07-289.596 172.07-289.596 172.07-289.596 170.364-290.271 169-291.285 169-293.311 169-293.311 169-293.311 169-294.324 169-295 170.364-295 172.07-295 268.248-295 268.248-295 268.248-295 268.93-295 268.93-295 268.93-295 270.295-295 270.295-295 270.295-295 270.977-295 271.318-294.324 271.318-294.324 272-293.649 272-293.311 272-291.96 272-291.96 272-291.96 272-291.285 272-291.285 272-291.285 272-196.04 272-196.04 272-196.04 272-194.351 272-193 271.318-193 270.295-193 268.248-193 268.248-193 268.248-193 267.225-194.351 266.543-196.04 266.543" fill="#fefffe" fill-rule="evenodd"/><path d="M-281 262.158C-280.714 263.263-279.857 264-279 264-277.857 264-277 263.263-277 261.79-277 257-277 257-277 257-278.429 259.947-278.429 259.947-278.429 259.947-279 261.053-279.857 261.79-281 262.158" fill="#fefffe" fill-rule="evenodd"/><path d="M-273 262C-273 263.333-271.857 264-270.714 264-269.857 264-269 263.333-269 262-269 246-269 246-269 246-273 253-273 253-273 253L-273 262Z" fill="#fefffe" fill-rule="evenodd"/><path d="M-265 240.427C-265 261.92-265 261.92-265 261.92-265 263.307-264.143 264-263 264-261.857 264-261 263.307-261 261.92-261 241.12-261 241.12-261 241.12-263.857 238-263.857 238-263.857 238L-265 240.427Z" fill="#fefffe" fill-rule="evenodd"/><path d="M-257 261.931C-257 263.31-256.143 264-255 264-253.857 264-253 263.31-253 261.931-253 248.138-253 248.138-253 248.138-257 244-257 244-257 244L-257 261.931Z" fill="#fefffe" fill-rule="evenodd"/><path d="M-249 261.947C-249 263.316-248.143 264-247 264-246.143 264-245 263.316-245 261.947-245 255.105-245 255.105-245 255.105-249 251-249 251-249 251L-249 261.947Z" fill="#fefffe" fill-rule="evenodd"/><path d="M-241 258C-241 262-241 262-241 262-241 263.333-240.143 264-239 264-237.857 264-237 263.333-237 262-237 261.667-237 261.667-237 261.667-237.286 261.333-237.857 261-238.143 261L-241 258Z" fill="#fefffe" fill-rule="evenodd"/><path d="M-234 261.913C-234 261.913-234 261.913-234 261.913-234 263.304-232.571 264-231.5 264-230.071 264-229 263.304-229 261.913-229 256-229 256-229 256-230.429 259.13-230.429 259.13-230.429 259.13-231.143 260.522-232.571 261.565-234 261.913" fill="#fefffe" fill-rule="evenodd"/><path d="M-225 261.94C-225 263.313-224.143 264-223 264-221.857 264-221 263.313-221 261.94-221 241-221 241-221 241-225 249.925-225 249.925-225 249.925L-225 261.94Z" fill="#fefffe" fill-rule="evenodd"/><path d="M-218 261.964C-218 263.321-216.929 264-215.5 264-214.072 264-213 263.321-213 261.964-213 226-213 226-213 226-218 235.161-218 235.161-218 235.161L-218 261.964Z" fill="#fefffe" fill-rule="evenodd"/><path d="M-209 261.962C-209 263.32-208.143 264-207 264-206.143 264-205 263.32-205 261.962-205 211-205 211-205 211-209 220.173-209 220.173-209 220.173L-209 261.962Z" fill="#fefffe" fill-rule="evenodd"/><path d="M-202 261.96C-202 263.32-200.929 264-199.5 264-198.071 264-197 263.32-197 261.96-197 196-197 196-197 196-202 204.84-202 204.84-202 204.84L-202 261.96Z" fill="#fefffe" fill-rule="evenodd"/></g></svg>