<svg width="112" height="131" xmlns="http://www.w3.org/2000/svg" xmlns:xlink="http://www.w3.org/1999/xlink" xml:space="preserve" overflow="hidden"><defs><clipPath id="clip0"><rect x="-229" y="-30" width="112" height="131"/></clipPath></defs><g clip-path="url(#clip0)" transform="translate(229 30)"><path d="M-173 101-229 68.2501-229 2.75009-173-29.9999-117 2.75009-117 68.2501-173 101Z" fill="#3266A9" fill-rule="evenodd"/><path d="M-172.715 94.5-223.5 65.2501-223.5 6.75013-172.715-22.4998-122.5 6.75013-122.5 65.2501-172.715 94.5Z" stroke="#FFFFFF" stroke-width="0.573097" stroke-miterlimit="8" fill="none" fill-rule="evenodd"/><path d="M-215 13.0001-205.747 13.0001-191.289 46.7501-190.711 46.7501-176.253 13.0001-167 13.0001-167 58.0001-173.361 58.0001-173.361 21.4376-173.361 21.4376-189.554 58.0001-193.024 58.0001-208.638 21.4376-208.638 21.4376-208.638 58.0001-215 58.0001-215 13.0001Z" fill="#FFFFFF" fill-rule="evenodd"/><path d="M-162 13.0001-132.577 13.0001-132.577 18.6251-156.231 18.6251-156.231 32.1251-134.308 32.1251-134.308 37.7501-156.231 37.7501-156.231 52.3751-132 52.3751-132 58.0001-162 58.0001-162 13.0001Z" fill="#FFFFFF" fill-rule="evenodd"/></g></svg>